<?xml version="1.0" encoding="utf-8"?>
<!-- Generator: Adobe Illustrator 26.4.1, SVG Export Plug-In . SVG Version: 6.00 Build 0)  -->
<svg version="1.1" id="Слой_1" xmlns="http://www.w3.org/2000/svg" xmlns:xlink="http://www.w3.org/1999/xlink" x="0px" y="0px"
	 viewBox="0 0 44.5 18.8" style="enable-background:new 0 0 44.5 18.8;" xml:space="preserve">
<style type="text/css">
	.st0{fill-rule:evenodd;clip-rule:evenodd;fill:#C90032;}
</style>
<g>
	<g>
		<g>
			<path class="st0" d="M9.3,4.5c-2.8,0-5,2.2-5,5s2.2,5,5,5s5-2.2,5-5S12.1,4.5,9.3,4.5z M9.3,12.5c-1.7,0-3-1.3-3-3s1.3-3,3-3
				s3,1.3,3,3S11,12.5,9.3,12.5z M35.3,0.5h-26c-5,0-9,4-9,9s4,9,9,9h26c5,0,9-4,9-9S40.3,0.5,35.3,0.5z M35.3,16.5h-26
				c-3.9,0-7-3.1-7-7s3.1-7,7-7h26c3.9,0,7,3.1,7,7S39.2,16.5,35.3,16.5z"/>
		</g>
	</g>
</g>
</svg>
