<?xml version="1.0" encoding="utf-8"?>
<!-- Generator: Adobe Illustrator 26.4.1, SVG Export Plug-In . SVG Version: 6.00 Build 0)  -->
<svg version="1.1" id="Слой_1" xmlns="http://www.w3.org/2000/svg" xmlns:xlink="http://www.w3.org/1999/xlink" x="0px" y="0px"
	 viewBox="0 0 44.5 18.8" style="enable-background:new 0 0 44.5 18.8;" xml:space="preserve">
<style type="text/css">
	.st0{fill-rule:evenodd;clip-rule:evenodd;fill:#237F00;}
</style>
<g>
	<g>
		<g>
			<path class="st0" d="M35.3,14.5c2.8,0,5-2.2,5-5s-2.2-5-5-5c-2.8,0-5,2.2-5,5S32.5,14.5,35.3,14.5z M35.3,6.5c1.7,0,3,1.3,3,3
				s-1.3,3-3,3c-1.7,0-3-1.3-3-3S33.6,6.5,35.3,6.5z M9.3,18.5h26c5,0,9-4,9-9s-4-9-9-9h-26c-5,0-9,4-9,9S4.3,18.5,9.3,18.5z
				 M9.3,2.5h26c3.9,0,7,3.1,7,7s-3.1,7-7,7h-26c-3.9,0-7-3.1-7-7S5.4,2.5,9.3,2.5z"/>
		</g>
	</g>
</g>
</svg>
